<svg width="16" height="16" viewBox="0 0 16 16" fill="none" xmlns="http://www.w3.org/2000/svg">
<g clip-path="url(#clip0_3734_19030)">
<path d="M12.2985 6.60321L11.4533 4.04837H12.163C12.4468 4.04837 12.6791 3.81611 12.6791 3.53224C12.6791 3.24837 12.4468 3.01611 12.163 3.01611H10.7404C10.3888 3.01611 10.1404 3.36127 10.2501 3.69353L10.7565 5.22579L10.3888 5.69353H5.98232L5.41781 4.75805H5.54684C5.83071 4.75805 6.06297 4.52579 6.06297 4.24192C6.06297 3.95805 5.83071 3.72579 5.54684 3.72579H3.93393C3.65006 3.72579 3.41781 3.95805 3.41781 4.24192C3.41781 4.52579 3.65006 4.75805 3.93393 4.75805H4.21135L6.93071 9.27418H6.36297C5.96297 6.78386 2.84361 5.61934 0.940386 7.52256C-0.314453 8.7774 -0.317679 10.7871 0.940386 12.0419C2.79522 13.8968 5.93716 12.8516 6.35974 10.3064H7.84039C7.99845 10.3064 8.15006 10.2322 8.24684 10.1097L11.1436 6.40644L11.3146 6.92579C10.2855 7.46127 9.5791 8.53869 9.5791 9.77418C9.5791 11.5451 11.0178 12.9839 12.7888 12.9839C14.5597 12.9839 16.0017 11.5451 16.0017 9.77418C16.0017 7.81934 14.2533 6.29998 12.2985 6.60321ZM4.56942 9.27418C4.36297 8.70321 3.81458 8.29676 3.17264 8.29676C2.35329 8.29676 1.68555 8.96127 1.68555 9.78385C1.68555 10.6032 2.35006 11.271 3.17264 11.271C3.80813 11.271 4.35006 10.871 4.56297 10.3097H5.31135C5.07587 11.2516 4.22103 11.9548 3.2049 11.9548C2.00813 11.9548 1.03393 10.9806 1.03393 9.78385C1.03393 8.58708 2.00813 7.61289 3.2049 7.61289C4.22748 7.61289 5.08555 8.32256 5.31458 9.27418H4.56942ZM7.90168 8.8774L6.6049 6.72579H9.58232L7.90168 8.8774ZM12.792 11.9516C11.592 11.9516 10.6146 10.9742 10.6146 9.77418C10.6146 8.99353 11.0275 8.30644 11.6468 7.92256L11.8759 8.61289C11.5307 8.88385 11.3081 9.30644 11.3081 9.78063C11.3081 10.6 11.9726 11.2677 12.7952 11.2677C13.6178 11.2677 14.2823 10.6032 14.2823 9.78063C14.2823 8.98063 13.6533 8.32902 12.8597 8.29676L12.6307 7.60321C13.9049 7.50644 14.9726 8.51934 14.9726 9.77418C14.9694 10.9742 13.992 11.9516 12.792 11.9516Z" fill="#5D6C7B"/>
</g>
<defs>
<clipPath id="clip0_3734_19030">
<rect width="16" height="16" fill="white"/>
</clipPath>
</defs>
</svg>
