<svg width="20" height="20" viewBox="0 0 20 20" fill="none" xmlns="http://www.w3.org/2000/svg">
<path d="M17.9932 5.51496C17.7325 4.90541 17.3566 4.35303 16.8866 3.88876C16.4163 3.4231 15.8617 3.05305 15.2531 2.79873C14.622 2.53397 13.9452 2.39845 13.2618 2.40004C12.3031 2.40004 11.3677 2.66518 10.5548 3.166C10.3603 3.28581 10.1756 3.4174 10.0006 3.56077C9.82555 3.4174 9.64081 3.28581 9.44634 3.166C8.63347 2.66518 7.69809 2.40004 6.73936 2.40004C6.04901 2.40004 5.38004 2.53359 4.74803 2.79873C4.1374 3.05405 3.58706 3.42132 3.1145 3.88876C2.64389 4.35251 2.26795 4.90501 2.00799 5.51496C1.73768 6.14934 1.59961 6.823 1.59961 7.51629C1.59961 8.17031 1.73185 8.85182 1.99438 9.54512C2.21412 10.1245 2.52916 10.7255 2.93171 11.3324C3.56956 12.2928 4.4466 13.2944 5.53562 14.3098C7.34027 15.993 9.12742 17.1557 9.20326 17.2028L9.66414 17.5013C9.86833 17.6329 10.1309 17.6329 10.3351 17.5013L10.7959 17.2028C10.8718 17.1537 12.657 15.993 14.4636 14.3098C15.5526 13.2944 16.4296 12.2928 17.0675 11.3324C17.47 10.7255 17.787 10.1245 18.0048 9.54512C18.2674 8.85182 18.3996 8.17031 18.3996 7.51629C18.4015 6.823 18.2635 6.14934 17.9932 5.51496ZM10.0006 15.9478C10.0006 15.9478 3.07756 11.4679 3.07756 7.51629C3.07756 5.51496 4.71691 3.89269 6.73936 3.89269C8.16092 3.89269 9.39384 4.69401 10.0006 5.86456C10.6073 4.69401 11.8402 3.89269 13.2618 3.89269C15.2842 3.89269 16.9236 5.51496 16.9236 7.51629C16.9236 11.4679 10.0006 15.9478 10.0006 15.9478Z" fill="#282739"/>
</svg>
