<svg width="22" height="22" viewBox="0 0 22 22" fill="none" xmlns="http://www.w3.org/2000/svg">
<g clip-path="url(#clip0_3734_19399)">
<path d="M21.3125 4.8125H11.6875C11.308 4.8125 11 5.1205 11 5.5C11 5.8795 11.308 6.1875 11.6875 6.1875H19.3091L15.0851 9.47238L12.056 7.546L11.319 8.7065L14.7565 10.8928C14.8679 10.9643 14.9971 11 15.125 11C15.2735 11 15.4234 10.9519 15.5471 10.8556L20.625 6.90525V15.8125H11.6875C11.308 15.8125 11 16.1205 11 16.5C11 16.8795 11.308 17.1875 11.6875 17.1875H21.3125C21.692 17.1875 22 16.8795 22 16.5V5.5C22 5.1205 21.692 4.8125 21.3125 4.8125Z" fill="#1976D2"/>
<path d="M12.1261 0.845575C11.9694 0.71495 11.759 0.658575 11.561 0.699825L0.561 2.76233C0.235125 2.82282 0 3.10607 0 3.43745V18.5624C0 18.8924 0.235125 19.1771 0.561 19.2376L11.561 21.3001C11.6023 21.3083 11.6449 21.3124 11.6875 21.3124C11.847 21.3124 12.0024 21.2575 12.1261 21.1543C12.2843 21.0237 12.375 20.8284 12.375 20.6249V1.37495C12.375 1.17007 12.2843 0.9762 12.1261 0.845575Z" fill="#2196F3"/>
<path d="M6.1875 15.8125C4.29275 15.8125 2.75 13.9617 2.75 11.6875C2.75 9.41325 4.29275 7.5625 6.1875 7.5625C8.08225 7.5625 9.625 9.41325 9.625 11.6875C9.625 13.9617 8.08225 15.8125 6.1875 15.8125ZM6.1875 8.9375C5.05037 8.9375 4.125 10.1709 4.125 11.6875C4.125 13.2041 5.05037 14.4375 6.1875 14.4375C7.32463 14.4375 8.25 13.2041 8.25 11.6875C8.25 10.1709 7.32463 8.9375 6.1875 8.9375Z" fill="#FAFAFA"/>
</g>
<defs>
<clipPath id="clip0_3734_19399">
<rect width="22" height="22" fill="white"/>
</clipPath>
</defs>
</svg>
