<svg width="16" height="16" viewBox="0 0 16 16" fill="none" xmlns="http://www.w3.org/2000/svg">
<g clip-path="url(#clip0_3734_19041)">
<path d="M13.5229 0H2.47709C1.11122 0 0 1.11122 0 2.47709V13.5229C0 14.8888 1.11122 16 2.47709 16H13.5229C14.8888 16 16 14.8888 16 13.5229V2.47709C16 1.11122 14.8888 0 13.5229 0ZM12.2359 4.42691L10.4613 6.20172C10.2782 6.38481 9.98153 6.38472 9.79847 6.20181C9.31747 5.721 8.67878 5.45625 8 5.45625C7.32122 5.45625 6.68253 5.72103 6.20153 6.20181C6.01844 6.38475 5.72172 6.38475 5.53866 6.20172L3.76406 4.42691C3.58103 4.24384 3.58106 3.94706 3.76409 3.764C4.89622 2.63184 6.40056 2.00834 8 2.00834C9.59944 2.00834 11.1038 2.63184 12.2359 3.76403C12.4189 3.94706 12.419 4.24384 12.2359 4.42691Z" fill="#5D6C7B"/>
<path d="M4.77539 4.11037L5.89411 5.22922C6.49739 4.76818 7.2307 4.51862 8.00192 4.51862C8.77314 4.51862 9.50645 4.76818 10.1097 5.22922L11.2285 4.11037C10.3229 3.35618 9.19367 2.94568 8.00192 2.94568C6.81017 2.94568 5.68095 3.35618 4.77539 4.11037Z" fill="#5D6C7B"/>
</g>
<defs>
<clipPath id="clip0_3734_19041">
<rect width="16" height="16" fill="white"/>
</clipPath>
</defs>
</svg>
