<svg width="16" height="16" viewBox="0 0 16 16" fill="none" xmlns="http://www.w3.org/2000/svg">
<g clip-path="url(#clip0_3734_19015)">
<path d="M10.9689 12.8376H5.02734C5.17262 13.1872 5.25299 13.5703 5.25299 13.9719C5.25299 14.3734 5.17262 14.7565 5.02734 15.1061H10.9689C10.8236 14.7565 10.7432 14.3734 10.7432 13.9719C10.7432 13.5703 10.8236 13.1872 10.9689 12.8376Z" fill="#6F73EE"/>
<path d="M13.8328 11.0091L12.6838 0H9.57227V0.93744H11.8392L12.9017 11.1187C13.1591 11.0456 13.4305 11.0064 13.711 11.0064C13.7518 11.0064 13.7924 11.0074 13.8328 11.0091Z" fill="#6F73EE"/>
<path d="M15.7378 13.9721C15.7378 12.8539 14.828 11.9441 13.7097 11.9441C12.5914 11.9441 11.6816 12.8539 11.6816 13.9721C11.6816 15.0905 12.5914 16.0002 13.7097 16.0002C14.828 16.0002 15.7378 15.0905 15.7378 13.9721Z" fill="#6F73EE"/>
<path d="M7.99956 7.58978C8.73951 7.58978 9.45265 7.90132 9.95615 8.44447L10.6436 7.80717C9.96334 7.07325 8.99959 6.65234 7.99956 6.65234C6.99952 6.65234 6.03577 7.07325 5.35547 7.80717L6.04296 8.44447C6.54646 7.90129 7.2596 7.58978 7.99956 7.58978Z" fill="#6F73EE"/>
<path d="M6.50977 9.24641L7.285 9.77347C7.44621 9.53639 7.71319 9.39484 7.9992 9.39484C8.28522 9.39484 8.5522 9.53639 8.71341 9.77347L9.48864 9.24641C9.15276 8.75235 8.59595 8.4574 7.9992 8.4574C7.40246 8.4574 6.84565 8.75238 6.50977 9.24641Z" fill="#6F73EE"/>
<path d="M4.31793 13.9721C4.31793 12.8539 3.40814 11.9441 2.28984 11.9441C1.17154 11.9441 0.261719 12.8539 0.261719 13.9721C0.261719 15.0905 1.1715 16.0002 2.28981 16.0002C3.40811 16.0002 4.31793 15.0905 4.31793 13.9721Z" fill="#6F73EE"/>
</g>
<defs>
<clipPath id="clip0_3734_19015">
<rect width="16" height="16" fill="white"/>
</clipPath>
</defs>
</svg>
