<svg width="16" height="16" viewBox="0 0 16 16" fill="none" xmlns="http://www.w3.org/2000/svg">
<g clip-path="url(#clip0_3734_19024)">
<path d="M9.57304 4.76829L10.4347 4.39349L8.83378 0.390625H6.51172V1.32997H8.19753L9.57304 4.76829Z" fill="#5D6C7B"/>
<path d="M14.2558 10.7712C13.6083 9.26632 12.2059 6.00805 11.713 4.86267L9.01365 6.03654L9.6643 7.54889L7.34036 11.6629H5.9805C5.9805 9.90758 4.59434 8.657 3.02188 8.657H0V9.59635H3.02188C4.08803 9.59635 5.04116 10.438 5.04116 11.6629H4.49289C3.85382 10.8018 2.70312 10.4267 1.66045 10.8097C0.773708 11.1328 0.0898641 11.9682 0.0350689 13.0002C-0.0560476 14.692 1.54178 15.9645 3.15808 15.5195C3.67409 15.3771 4.15222 15.0652 4.49289 14.6062H8.79008L11.0148 10.6863C11.4409 11.6764 11.4735 11.7456 11.4744 11.7528C10.8648 12.6517 10.928 13.835 11.5871 14.6672C12.5155 15.8587 14.3178 15.9319 15.3398 14.8147C16.5854 13.4715 15.9817 11.3028 14.2558 10.7712Z" fill="#5D6C7B"/>
</g>
<defs>
<clipPath id="clip0_3734_19024">
<rect width="16" height="16" fill="white"/>
</clipPath>
</defs>
</svg>
