<svg width="16" height="16" viewBox="0 0 16 16" fill="none" xmlns="http://www.w3.org/2000/svg">
<g clip-path="url(#clip0_3734_19034)">
<path d="M2.69336 2.01941L3.52979 2.85583C4.76978 1.77502 6.33972 1.18469 8.00049 1.18469C8.70886 1.18469 9.40051 1.29248 10.0573 1.49939C10.0695 1.50269 10.0814 1.50647 10.0933 1.51086C10.9626 1.79016 11.7698 2.24438 12.4712 2.85583L13.3076 2.01941C11.8944 0.763916 10.0352 0 8.00049 0C5.96582 0 4.10657 0.763916 2.69336 2.01941Z" fill="#5D6C7B"/>
<path d="M13.9806 2.69287L13.1442 3.5293C14.2251 4.76929 14.8153 6.33923 14.8153 8C14.8153 9.82043 14.1064 11.5319 12.8192 12.8192C11.532 14.1064 9.82043 14.8153 8 14.8153C6.17957 14.8153 4.46814 14.1064 3.18079 12.8192C1.89355 11.5319 1.18469 9.82043 1.18469 8C1.18469 6.33923 1.7749 4.76929 2.85583 3.5293L2.01941 2.69287C0.763916 4.10608 0 5.96533 0 8C0 12.4113 3.58875 16 8 16C12.4113 16 16 12.4113 16 8C16 5.96533 15.2361 4.10608 13.9806 2.69287Z" fill="#5D6C7B"/>
<path d="M8.00085 2.13708C7.49878 2.13708 7.01135 2.20056 6.5459 2.31982C6.55481 3.33777 6.54297 7.6908 6.54297 7.88843C6.54297 8.46887 6.74072 9.01501 7.26782 9.32141C7.70581 9.57605 8.27917 9.57922 8.71997 9.32935C9.27783 9.01318 9.4176 8.49792 9.45044 7.93652C9.45764 7.81299 9.45874 3.15942 9.45874 2.32056C8.99255 2.20081 8.50403 2.13708 8.00085 2.13708ZM8.00085 8.4762C7.73389 8.4762 7.53625 8.25806 7.52466 8C7.51318 7.7428 7.75183 7.5238 8.00085 7.5238C8.26782 7.5238 8.46545 7.74194 8.47705 8C8.48853 8.2572 8.24988 8.4762 8.00085 8.4762Z" fill="#5D6C7B"/>
<path d="M5.58936 2.65564C3.5553 3.57666 2.13672 5.62573 2.13672 8C2.13672 11.2328 4.76672 13.8629 7.99963 13.8629C11.2325 13.8629 13.8625 11.2328 13.8625 8C13.8625 5.62573 12.444 3.57666 10.4099 2.65564V5.53101V7.46216C10.4099 7.91052 10.4374 8.37024 10.2928 8.80225C9.90955 9.94824 8.75342 10.6259 7.56787 10.4297C6.42798 10.2412 5.59985 9.19739 5.58936 8.05957C5.57983 7.03296 5.58936 6.00598 5.58936 4.97949C5.58936 4.20483 5.58936 3.4303 5.58936 2.65564Z" fill="#5D6C7B"/>
</g>
<defs>
<clipPath id="clip0_3734_19034">
<rect width="16" height="16" fill="white"/>
</clipPath>
</defs>
</svg>
