<svg width="18" height="18" viewBox="0 0 18 18" fill="none" xmlns="http://www.w3.org/2000/svg">
<g clip-path="url(#clip0_3734_19374)">
<path d="M8.99518 0.0058637C4.02755 0.00691777 0.00134215 4.03485 0.00239621 9.00248C0.00274756 10.7226 0.496366 12.4065 1.42464 13.8547L0.0252343 17.4855C-0.0492881 17.6787 0.0468426 17.8956 0.239947 17.9701C0.283129 17.9868 0.32898 17.9953 0.375254 17.9953C0.418189 17.9955 0.460809 17.9881 0.501179 17.9735L4.24897 16.6355C8.46565 19.2618 14.0129 17.9724 16.6391 13.7557C19.2652 9.53896 17.9759 3.99174 13.7592 1.36557C12.3298 0.475309 10.6792 0.00421233 8.99518 0.0058637Z" fill="#75D14A"/>
<path d="M13.2837 10.5366C13.2837 10.5366 12.3655 10.0869 11.7906 9.78706C11.14 9.45201 10.3754 10.0794 10.0156 10.4362C9.45568 10.2211 8.94424 9.89644 8.51127 9.48124C8.096 9.04834 7.77135 8.53691 7.55632 7.97688C7.91312 7.61636 8.53899 6.85255 8.20545 6.20195C7.90936 5.62629 7.45591 4.70809 7.45591 4.70809C7.39228 4.58182 7.26301 4.50209 7.12159 4.50195H6.37205C5.28046 4.69049 4.48678 5.64294 4.49817 6.75062C4.49817 7.92741 5.90657 10.1881 6.85628 11.1385C7.806 12.0889 10.0666 13.4966 11.2442 13.4966C12.3519 13.508 13.3043 12.7143 13.4928 11.6228V10.8732C13.493 10.7303 13.4119 10.5997 13.2837 10.5366Z" fill="white"/>
</g>
<defs>
<clipPath id="clip0_3734_19374">
<rect width="18" height="18" fill="white"/>
</clipPath>
</defs>
</svg>
