<svg width="22" height="22" viewBox="0 0 22 22" fill="none" xmlns="http://www.w3.org/2000/svg">
<g clip-path="url(#clip0_3734_19404)">
<path d="M21.6899 3.31252H21.6896H13.0408C12.9533 3.31252 12.8699 3.34943 12.8111 3.41418C12.7523 3.47898 12.7235 3.56543 12.7319 3.65262L12.9006 5.40114C12.9153 5.55377 13.0393 5.67271 13.1924 5.68113L14.9993 5.78056L11.5301 10.594L7.74696 3.0569L10.4782 2.95248C10.6434 2.94621 10.7745 2.81172 10.7766 2.6465L10.7965 1.08279C10.7975 0.99977 10.7653 0.919848 10.7071 0.860809C10.6488 0.801856 10.5693 0.768555 10.4864 0.768555H0.310234C0.138832 0.768555 0 0.907387 0 1.07883V2.82156C0 2.99116 0.136211 3.12934 0.305723 3.13179L3.18106 3.17321L8.64914 12.8192L8.62473 18.8436L4.82286 18.9996C4.65884 19.0063 4.52852 19.1397 4.52538 19.3037L4.49462 20.9153C4.49303 20.9986 4.52508 21.079 4.58352 21.1386C4.64179 21.198 4.72154 21.2314 4.80485 21.2314H16.697C16.7821 21.2314 16.8635 21.1965 16.9221 21.1348C16.9806 21.0731 17.0114 20.9901 17.0069 20.9051L16.9238 19.3096C16.9156 19.1509 16.7889 19.0242 16.6302 19.0159L13.3592 18.8444L12.883 12.9761L18.755 5.90091L21.1457 5.7922C21.2774 5.7861 21.3908 5.69759 21.4288 5.57139L21.9835 3.72296C21.9941 3.69163 22 3.65782 22 3.62275C22 3.45148 21.8613 3.31252 21.6899 3.31252Z" fill="#7F40BD"/>
</g>
<defs>
<clipPath id="clip0_3734_19404">
<rect width="22" height="22" fill="white"/>
</clipPath>
</defs>
</svg>
