<svg width="22" height="22" viewBox="0 0 22 22" fill="none" xmlns="http://www.w3.org/2000/svg">
<g clip-path="url(#clip0_3734_19396)">
<path d="M15.6195 0H12.4937C9.32698 0 6.13157 2.33845 6.13157 7.56276C6.13157 10.2688 7.27844 12.3764 9.38082 13.575L5.53288 20.5399C5.35044 20.8693 5.34567 21.2426 5.52008 21.5385C5.69036 21.8274 6.00176 22 6.35273 22H8.29925C8.74145 22 9.08623 21.7863 9.25157 21.4118L12.8594 14.355H13.1228V21.1205C13.1228 21.5973 13.5251 22 14.0013 22H15.7017C16.2358 22 16.6086 21.6271 16.6086 21.0932V0.962629C16.6087 0.395871 16.202 0 15.6195 0ZM13.1228 11.2203H12.6583C10.8572 11.2203 9.78202 9.75012 9.78202 7.28763C9.78202 4.22572 11.1403 3.13479 12.4114 3.13479H13.1228V11.2203Z" fill="#D7143A"/>
</g>
<defs>
<clipPath id="clip0_3734_19396">
<rect width="22" height="22" fill="white"/>
</clipPath>
</defs>
</svg>
