<svg width="20" height="20" viewBox="0 0 20 20" fill="none" xmlns="http://www.w3.org/2000/svg">
<g clip-path="url(#clip0_4790_1710)">
<path d="M0.434207 14.8949C0.842541 16.3433 2.09171 16.6083 2.17504 16.6591C4.23087 17.2191 15.7542 17.2208 17.8409 16.6591C19.27 16.2458 19.5325 14.9783 19.5817 14.8949C20.1259 11.9999 20.1617 8.22575 19.5567 4.94075L19.5817 5.10409C19.1734 3.65575 17.9242 3.39075 17.8409 3.33992C15.8125 2.78909 4.25921 2.76825 2.17504 3.33992C0.745874 3.75409 0.483374 5.02075 0.434207 5.10409C-0.148293 8.14659 -0.177459 11.6374 0.434207 14.8949ZM8.00587 13.0424V6.96492L13.2275 10.0083L8.00587 13.0424Z" fill="#E53935"/>
</g>
<defs>
<clipPath id="clip0_4790_1710">
<rect width="20" height="20" fill="white"/>
</clipPath>
</defs>
</svg>
