<svg width="25" height="25" viewBox="0 0 25 25" fill="none" xmlns="http://www.w3.org/2000/svg">
<path d="M20.3125 16.6667C17.7281 16.6667 15.625 14.5635 15.625 11.9792C15.625 9.39479 17.7281 7.29167 20.3125 7.29167H22.9167V5.98958C22.9167 4.40937 21.6323 3.125 20.0521 3.125H2.86458C1.28438 3.125 0 4.40937 0 5.98958V19.0104C0 20.5906 1.28438 21.875 2.86458 21.875H20.0521C21.6323 21.875 22.9167 20.5906 22.9167 19.0104V16.6667H20.3125Z" fill="#6F73EE"/>
<path d="M24.2187 8.854H20.3125C18.5896 8.854 17.1875 10.2561 17.1875 11.979C17.1875 13.7019 18.5896 15.104 20.3125 15.104H24.2187C24.65 15.104 25 14.754 25 14.3228V9.63525C25 9.204 24.65 8.854 24.2187 8.854ZM20.3125 13.0207C19.7375 13.0207 19.2708 12.554 19.2708 11.979C19.2708 11.404 19.7375 10.9373 20.3125 10.9373C20.8875 10.9373 21.3542 11.404 21.3542 11.979C21.3542 12.554 20.8875 13.0207 20.3125 13.0207Z" fill="#6F73EE"/>
</svg>
