<svg width="25" height="25" viewBox="0 0 25 25" fill="none" xmlns="http://www.w3.org/2000/svg">
<g clip-path="url(#clip0_3734_17332)">
<path d="M10.8546 9.70644C11.819 8.66043 12.3503 7.25734 12.3503 5.75522C12.3503 2.89523 10.3075 0 6.40246 0C4.58512 0 3.05198 0.624205 1.96855 1.80509C1.00885 2.85126 0.480469 4.25404 0.480469 5.75522C0.480469 8.61552 2.51463 11.5106 6.40246 11.5106C8.22658 11.5107 9.76643 10.8869 10.8546 9.70644ZM6.40246 2.67599C8.54211 2.67599 9.51655 4.27322 9.51655 5.75725C9.51655 6.56452 9.24491 7.31183 8.75122 7.86127C8.20046 8.47495 7.40005 8.79945 6.43716 8.79945C4.2434 8.79945 3.24401 7.20237 3.24401 5.7185C3.24401 4.2043 4.22078 2.67599 6.40246 2.67599Z" fill="#6F73EE"/>
<path d="M20.6046 2.22034C20.2507 2.22673 19.7676 2.44738 19.5309 2.71052L1.96364 22.2422C1.72701 22.5055 1.89463 22.8746 2.24853 22.8746H4.54778C4.90167 22.8746 5.38436 22.6588 5.6206 22.3953L23.0792 2.86754C23.3154 2.60378 23.2997 2.17465 22.715 2.1748L20.6046 2.22034Z" fill="#6F73EE"/>
<path d="M18.6843 13.7085C16.902 13.7085 15.3979 14.3212 14.335 15.4795C13.3936 16.5054 12.875 17.8818 12.875 19.3544C12.875 22.16 14.8705 25.0002 18.6843 25.0002C20.4742 25.0002 21.9844 24.3881 23.052 23.2302C23.9982 22.204 24.5192 20.8276 24.5192 19.3544C24.5192 16.5488 22.515 13.7085 18.6843 13.7085ZM18.7187 22.4093C16.5844 22.4093 15.6119 20.8066 15.6119 19.3181C15.6119 18.5075 15.8834 17.7573 16.3767 17.2058C16.9266 16.5903 17.7245 16.265 18.6843 16.265C20.8188 16.265 21.7909 17.8675 21.7909 19.3564C21.7909 20.1669 21.5193 20.9172 21.0264 21.4687C20.4763 22.084 19.6783 22.4093 18.7187 22.4093Z" fill="#6F73EE"/>
</g>
<defs>
<clipPath id="clip0_3734_17332">
<rect width="25" height="25" fill="white"/>
</clipPath>
</defs>
</svg>
