<svg width="25" height="25" viewBox="0 0 25 25" fill="none" xmlns="http://www.w3.org/2000/svg">
<g clip-path="url(#clip0_3734_17316)">
<path fill-rule="evenodd" clip-rule="evenodd" d="M18.4044 6.49967V0.732231C18.4044 0.327873 18.0765 0 17.6722 0H12.7274V5.56831C12.7274 6.09436 12.1664 6.49948 11.6179 6.19602L9.22661 4.98524L6.78711 6.22044C6.29559 6.46877 5.7272 6.10085 5.72758 5.56831L5.72624 0H0.781059C0.376701 0 0.0488281 0.327873 0.0488281 0.732231V17.6233C0.0488281 18.0277 0.376701 18.3556 0.781059 18.3556H10.3292C9.88178 17.1701 9.61189 15.9914 9.61189 14.9408C9.61189 10.1448 13.6005 6.30722 18.4044 6.49967Z" fill="#6F73EE"/>
<path fill-rule="evenodd" clip-rule="evenodd" d="M9.55652 3.51429L11.2636 4.3787V0H7.19141V4.3787L8.89734 3.51505C9.09723 3.41377 9.34099 3.40576 9.55652 3.51429Z" fill="#6F73EE"/>
<path fill-rule="evenodd" clip-rule="evenodd" d="M18.0597 7.95703C14.2031 7.95703 11.0762 11.0839 11.0762 14.9406C11.0762 16.7835 12.1195 19.2146 13.4504 21.2003C14.8806 23.3341 16.7112 24.9998 18.0597 24.9998C19.4082 24.9998 21.2389 23.3341 22.669 21.2003C24 19.2146 25.0433 16.7835 25.0433 14.9406C25.0435 11.0839 21.9166 7.95703 18.0597 7.95703ZM18.0597 17.6284C16.5756 17.6284 15.3721 16.4249 15.3721 14.9406C15.3721 13.4565 16.5756 12.2531 18.0597 12.2531C19.5438 12.2531 20.7474 13.4565 20.7474 14.9406C20.7474 16.4249 19.544 17.6284 18.0597 17.6284Z" fill="#6F73EE"/>
<path fill-rule="evenodd" clip-rule="evenodd" d="M19.2841 14.9408C19.2841 15.6163 18.7365 16.1639 18.0609 16.1639C17.3855 16.1639 16.8379 15.6163 16.8379 14.9408C16.8379 14.2654 17.3855 13.7178 18.0609 13.7178C18.7365 13.7178 19.2841 14.2654 19.2841 14.9408Z" fill="#6F73EE"/>
</g>
<defs>
<clipPath id="clip0_3734_17316">
<rect width="25" height="25" fill="white"/>
</clipPath>
</defs>
</svg>
